<svg width="1152" height="450" viewBox="0 0 1152 450" fill="none" xmlns="http://www.w3.org/2000/svg">
<mask id="path-1-outside-1_547_8946" maskUnits="userSpaceOnUse" x="0" y="0" width="1152" height="450" fill="black">
<rect fill="white" width="1152" height="450"/>
<path d="M0 18C0 9.16344 7.16344 2 16 2H1136C1144.84 2 1152 9.16344 1152 18V434C1152 442.837 1144.84 450 1136 450H16C7.16345 450 0 442.837 0 434V18Z"/>
</mask>
<path d="M0 18C0 9.16344 7.16344 2 16 2H1136C1144.84 2 1152 9.16344 1152 18V434C1152 442.837 1144.84 450 1136 450H16C7.16345 450 0 442.837 0 434V18Z" fill="#161C29"/>
<path d="M0 18C0 8.05887 8.05887 0 18 0H1134C1143.94 0 1152 8.05887 1152 18C1152 10.268 1144.84 4 1136 4H16C7.16344 4 0 10.268 0 18ZM1152 450H0H1152ZM0 450V2V450ZM1152 2V450V2Z" fill="url(#paint0_linear_547_8946)" mask="url(#path-1-outside-1_547_8946)"/>
<mask id="mask0_547_8946" style="mask-type:alpha" maskUnits="userSpaceOnUse" x="0" y="0" width="1152" height="450">
<mask id="path-3-outside-2_547_8946" maskUnits="userSpaceOnUse" x="0" y="0" width="1152" height="450" fill="black">
<rect fill="white" width="1152" height="450"/>
<path d="M0 18C0 9.16344 7.16344 2 16 2H1136C1144.84 2 1152 9.16344 1152 18V434C1152 442.837 1144.84 450 1136 450H16C7.16345 450 0 442.837 0 434V18Z"/>
</mask>
<path d="M0 18C0 9.16344 7.16344 2 16 2H1136C1144.84 2 1152 9.16344 1152 18V434C1152 442.837 1144.84 450 1136 450H16C7.16345 450 0 442.837 0 434V18Z" fill="#161C29"/>
<path d="M0 18C0 8.05887 8.05887 0 18 0H1134C1143.94 0 1152 8.05887 1152 18C1152 10.268 1144.84 4 1136 4H16C7.16344 4 0 10.268 0 18ZM1152 450H0H1152ZM0 450V2V450ZM1152 2V450V2Z" fill="url(#paint1_linear_547_8946)" mask="url(#path-3-outside-2_547_8946)"/>
</mask>
<g mask="url(#mask0_547_8946)">
<path d="M156 306V466H74.8721V380.419H-7V306H156Z" stroke="url(#paint2_linear_547_8946)" stroke-opacity="0.4"/>
<path d="M104.5 416H31V338.809" stroke="url(#paint3_linear_547_8946)" stroke-opacity="0.4"/>
<path d="M1166 6V166H1084.87V80.4186H1003V6H1166Z" stroke="url(#paint4_linear_547_8946)" stroke-opacity="0.4"/>
<path d="M1114.5 116H1041V38.8095" stroke="url(#paint5_linear_547_8946)" stroke-opacity="0.4"/>
<path d="M110 52H36.5V129.191" stroke="url(#paint6_linear_547_8946)" stroke-opacity="0.4"/>
<path d="M-4.5 79.1904H69V1.99989" stroke="url(#paint7_linear_547_8946)" stroke-opacity="0.4"/>
<path d="M1156.5 372H1083V449.191" stroke="url(#paint8_linear_547_8946)" stroke-opacity="0.4"/>
<path d="M1042 399.19H1115.5V322" stroke="url(#paint9_linear_547_8946)" stroke-opacity="0.4"/>
<path d="M382 301H263V510" stroke="url(#paint10_linear_547_8946)" stroke-opacity="0.4"/>
<path d="M783 301H892V510" stroke="url(#paint11_linear_547_8946)" stroke-opacity="0.4"/>
<path d="M612 401H533V610" stroke="url(#paint12_linear_547_8946)" stroke-opacity="0.4"/>
<ellipse cx="576" cy="7.5" rx="297" ry="217.5" fill="url(#paint13_radial_547_8946)" fill-opacity="0.2"/>
</g>
<defs>
<linearGradient id="paint0_linear_547_8946" x1="109.488" y1="2" x2="1062.51" y2="2" gradientUnits="userSpaceOnUse">
<stop stop-color="white" stop-opacity="0"/>
<stop offset="0.46875" stop-color="white" stop-opacity="0.4"/>
<stop offset="1" stop-color="white" stop-opacity="0"/>
</linearGradient>
<linearGradient id="paint1_linear_547_8946" x1="109.488" y1="2" x2="1062.51" y2="2" gradientUnits="userSpaceOnUse">
<stop stop-color="white" stop-opacity="0"/>
<stop offset="0.46875" stop-color="white" stop-opacity="0.3"/>
<stop offset="1" stop-color="white" stop-opacity="0"/>
</linearGradient>
<linearGradient id="paint2_linear_547_8946" x1="142.596" y1="458.585" x2="-5.05787" y2="302.318" gradientUnits="userSpaceOnUse">
<stop stop-color="white"/>
<stop offset="1" stop-color="#393940" stop-opacity="0"/>
</linearGradient>
<linearGradient id="paint3_linear_547_8946" x1="98.4557" y1="412.423" x2="27.1113" y2="341.85" gradientUnits="userSpaceOnUse">
<stop stop-color="white"/>
<stop offset="1" stop-color="#393940" stop-opacity="0"/>
</linearGradient>
<linearGradient id="paint4_linear_547_8946" x1="1152.6" y1="158.585" x2="1004.94" y2="2.31779" gradientUnits="userSpaceOnUse">
<stop stop-color="white"/>
<stop offset="1" stop-color="#393940" stop-opacity="0"/>
</linearGradient>
<linearGradient id="paint5_linear_547_8946" x1="1108.46" y1="112.423" x2="1037.11" y2="41.8495" gradientUnits="userSpaceOnUse">
<stop stop-color="white"/>
<stop offset="1" stop-color="#393940" stop-opacity="0"/>
</linearGradient>
<linearGradient id="paint6_linear_547_8946" x1="103.956" y1="55.5771" x2="32.6113" y2="126.15" gradientUnits="userSpaceOnUse">
<stop stop-color="white"/>
<stop offset="1" stop-color="#393940" stop-opacity="0"/>
</linearGradient>
<linearGradient id="paint7_linear_547_8946" x1="1.54429" y1="75.6133" x2="72.8887" y2="5.03996" gradientUnits="userSpaceOnUse">
<stop stop-color="white"/>
<stop offset="1" stop-color="#393940" stop-opacity="0"/>
</linearGradient>
<linearGradient id="paint8_linear_547_8946" x1="1150.46" y1="375.577" x2="1079.11" y2="446.15" gradientUnits="userSpaceOnUse">
<stop stop-color="white"/>
<stop offset="1" stop-color="#393940" stop-opacity="0"/>
</linearGradient>
<linearGradient id="paint9_linear_547_8946" x1="1048.04" y1="395.613" x2="1119.39" y2="325.04" gradientUnits="userSpaceOnUse">
<stop stop-color="white"/>
<stop offset="1" stop-color="#393940" stop-opacity="0"/>
</linearGradient>
<linearGradient id="paint10_linear_547_8946" x1="372.214" y1="310.685" x2="202.912" y2="410.828" gradientUnits="userSpaceOnUse">
<stop stop-color="white"/>
<stop offset="1" stop-color="#393940" stop-opacity="0"/>
</linearGradient>
<linearGradient id="paint11_linear_547_8946" x1="791.964" y1="310.685" x2="953.792" y2="398.364" gradientUnits="userSpaceOnUse">
<stop stop-color="white"/>
<stop offset="1" stop-color="#393940" stop-opacity="0"/>
</linearGradient>
<linearGradient id="paint12_linear_547_8946" x1="605.503" y1="410.685" x2="474.055" y2="462.303" gradientUnits="userSpaceOnUse">
<stop stop-color="white"/>
<stop offset="1" stop-color="#393940" stop-opacity="0"/>
</linearGradient>
<radialGradient id="paint13_radial_547_8946" cx="0" cy="0" r="1" gradientUnits="userSpaceOnUse" gradientTransform="translate(576 7.5) rotate(90) scale(217.5 297)">
<stop stop-color="white"/>
<stop offset="1" stop-color="white" stop-opacity="0"/>
</radialGradient>
</defs>
</svg>
